{
	"asset":{
		"generator":"Khronos glTF Blender I/O v4.3.47",
		"version":"2.0"
	},
	"extensionsUsed":[
		"KHR_materials_specular",
		"KHR_materials_ior"
	],
	"scene":0,
	"scenes":[
		{
			"name":"Scene",
			"nodes":[
				0
			]
		}
	],
	"nodes":[
		{
			"mesh":0,
			"name":"Asset3DLoader.sceneRoot"
		}
	],
	"materials":[
		{
			"doubleSided":true,
			"extensions":{
				"KHR_materials_specular":{
					"specularColorFactor":[
						0.0,
						0.0,
						0.0
					]
				},
				"KHR_materials_ior":{
					"ior":1000
				}
			},
			"name":"Material_0",
			"pbrMetallicRoughness":{
				"baseColorFactor":[
					0.2196078598499298,
					0.2196078598499298,
					0.2196078598499298,
					1
				],
				"metallicFactor":0,
				"roughnessFactor":0
			}
		}
	],
	"meshes":[
		{
			"name":"Mesh_0",
			"primitives":[
				{
					"attributes":{
						"POSITION":0,
						"NORMAL":1
					},
					"indices":2,
					"material":0
				}
			]
		}
	],
	"accessors":[
		{
			"bufferView":0,
			"componentType":5126,
			"count":115470,
			"max":[
				0.03828192874789238,
				0.014325265772640705,
				0.061373014003038406
			],
			"min":[
				-0.03432857245206833,
				-0.002624476095661521,
				-0.05224492400884628
			],
			"type":"VEC3"
		},
		{
			"bufferView":1,
			"componentType":5126,
			"count":115470,
			"type":"VEC3"
		},
		{
			"bufferView":2,
			"componentType":5125,
			"count":115470,
			"type":"SCALAR"
		}
	],
	"bufferViews":[
		{
			"buffer":0,
			"byteLength":1385640,
			"byteOffset":0,
			"target":34962
		},
		{
			"buffer":0,
			"byteLength":1385640,
			"byteOffset":1385640,
			"target":34962
		},
		{
			"buffer":0,
			"byteLength":461880,
			"byteOffset":2771280,
			"target":34963
		}
	],
	"buffers":[
		{
			"byteLength":3233160,
			"uri":"air2four-v4.bin"
		}
	]
}
