<?xml version="1.0" encoding="UTF-8"?>
<svg id="svg3346" xmlns="http://www.w3.org/2000/svg" viewBox="0 0 88.18 35.89">
  <defs>
    <style>
      .cls-1 {
        fill: #231f20;
      }
    </style>
  </defs>
  <path id="path3356" class="cls-1" d="M.16,35.67C.02,35.47,0,33.88,0,20.62,0,5.93,0,5.8.2,5.6c.11-.11.29-.2.4-.2s2.31.79,4.89,1.75c2.58.96,4.76,1.75,4.85,1.75s2.21-.79,4.71-1.75c2.5-.96,4.63-1.75,4.74-1.75s.29.12.41.26l.21.26v14.76c0,13.2-.02,14.78-.16,14.98l-.16.22H.31l-.16-.22ZM22.85,35.67c-.14-.2-.16-2.05-.16-17.75,0-17.39,0-17.53.2-17.72C23.09,0,23.23,0,32.83,0s9.74,0,9.9.18c.15.16.17.65.17,4.83,0,4.42,0,4.66-.19,4.82-.17.15-.61.17-4.99.16h-4.81s-.16.22-.16.22c-.23.32-.23,2.54,0,2.86l.16.22h4.77c4.16,0,4.8.02,4.99.16l.22.16v4.34c0,3.81-.02,4.36-.16,4.49-.14.14-.73.16-4.95.16-4.66,0-4.8,0-4.99.2-.18.18-.2.33-.2,1.45s.02,1.27.2,1.45c.19.19.33.2,4.98.2s4.79.01,4.95.18c.15.16.17.65.17,4.83s-.01,4.66-.18,4.82c-.17.15-1,.17-9.94.17h-9.76l-.16-.22h0ZM45.54,35.66c-.14-.21-.15-1.86-.13-15.04.03-14.4.03-14.81.22-15.01.1-.12.29-.21.41-.21s2.32.79,4.9,1.75c2.58.96,4.76,1.75,4.85,1.75s2.21-.79,4.7-1.75c2.49-.96,4.61-1.75,4.69-1.75s.26.07.38.16l.22.16v14.87c0,13.3-.02,14.89-.16,15.09l-.16.22h-19.78l-.15-.23h0ZM67.94,35.67c-.14-.2-.16-2.05-.16-17.75,0-17.39,0-17.53.2-17.72C68.18,0,68.32,0,77.99,0s9.8,0,10,.2c.2.2.2.33.2,17.72,0,15.7-.02,17.55-.16,17.75l-.16.22h-19.77l-.16-.22ZM79.74,33.68c1.97-.36,3.93-1.67,5.04-3.35.56-.84,1-2.14,1.03-2.98l.02-.6h-3.2l-.08.55c-.26,1.84-1.95,3.32-4.06,3.56-1.17.13-2.54-.37-3.43-1.26-.51-.51-1.04-1.49-1.14-2.09-.14-.9.06-.81-1.82-.78l-1.67.03.02.61c.03.78.42,2.01.9,2.84.6,1.03,1.81,2.17,2.91,2.73,1.29.66,2.08.85,3.63.86.69,0,1.52-.04,1.85-.1h0ZM73.67,9.31c.07-.05.19-.38.27-.75.27-1.31,1.12-2.39,2.34-2.99.63-.31.71-.32,1.81-.32,1.34,0,1.92.18,2.88.89.86.63,1.62,1.93,1.62,2.76,0,.46.14.5,1.65.5s1.65-.04,1.65-.49c0-1.14-.83-3.07-1.75-4.08-.97-1.07-2.47-1.99-3.9-2.38-.87-.24-3.01-.3-3.92-.11-1.5.32-2.7.96-3.78,2.02-1.14,1.12-1.84,2.47-2.07,4.01-.16,1.06-.18,1.04,1.6,1.04.8,0,1.52-.04,1.59-.08h0ZM5.15,3.44C2.46,2.37.19,1.42.13,1.33-.07,1.06-.03.43.2.2.4,0,.53,0,10.2,0s9.8,0,10,.2c.23.23.27.85.06,1.12-.17.22-9.61,4.08-9.95,4.07-.14,0-2.46-.88-5.16-1.95ZM50.6,3.46c-3.37-1.34-4.9-1.99-5.02-2.15-.25-.3-.24-.85.01-1.11.2-.2.33-.2,10-.2s9.8,0,10,.2c.23.23.27.87.07,1.13-.16.22-9.62,4.07-9.96,4.06-.14,0-2.44-.88-5.1-1.93h0Z"/>
</svg>